<svg viewBox="0 0 1200 630" xmlns="http://www.w3.org/2000/svg">
  <rect width="1200" height="630" fill="#0a0e1a"/>
  <pattern id="g" width="40" height="40" patternUnits="userSpaceOnUse">
    <circle cx="20" cy="20" r=".8" fill="rgba(123,192,59,.1)"/>
  </pattern>
  <rect width="1200" height="630" fill="url(#g)"/>
  <!-- Central person node -->
  <circle cx="600" cy="230" r="28" fill="#4f46e5" opacity=".3"/>
  <circle cx="600" cy="230" r="28" fill="none" stroke="#4f46e5" stroke-width="2" opacity=".6"/>
  <circle cx="600" cy="218" r="8" fill="#4f46e5" opacity=".5"/>
  <path d="M584,240 Q600,252 616,240" fill="none" stroke="#4f46e5" stroke-width="2" opacity=".5"/>
  <!-- Left person -->
  <circle cx="400" cy="200" r="22" fill="#7bc03b" opacity=".2"/>
  <circle cx="400" cy="200" r="22" fill="none" stroke="#7bc03b" stroke-width="1.5" opacity=".5"/>
  <circle cx="400" cy="190" r="6" fill="#7bc03b" opacity=".4"/>
  <path d="M388,208 Q400,218 412,208" fill="none" stroke="#7bc03b" stroke-width="1.5" opacity=".4"/>
  <!-- Right person -->
  <circle cx="800" cy="200" r="22" fill="#7bc03b" opacity=".2"/>
  <circle cx="800" cy="200" r="22" fill="none" stroke="#7bc03b" stroke-width="1.5" opacity=".5"/>
  <circle cx="800" cy="190" r="6" fill="#7bc03b" opacity=".4"/>
  <path d="M788,208 Q800,218 812,208" fill="none" stroke="#7bc03b" stroke-width="1.5" opacity=".4"/>
  <!-- Bottom left person -->
  <circle cx="450" cy="310" r="20" fill="#4f46e5" opacity=".2"/>
  <circle cx="450" cy="310" r="20" fill="none" stroke="#4f46e5" stroke-width="1.5" opacity=".4"/>
  <circle cx="450" cy="302" r="5" fill="#4f46e5" opacity=".4"/>
  <!-- Bottom right person -->
  <circle cx="750" cy="310" r="20" fill="#4f46e5" opacity=".2"/>
  <circle cx="750" cy="310" r="20" fill="none" stroke="#4f46e5" stroke-width="1.5" opacity=".4"/>
  <circle cx="750" cy="302" r="5" fill="#4f46e5" opacity=".4"/>
  <!-- Connection lines -->
  <line x1="422" y1="210" x2="572" y2="225" stroke="#7bc03b" stroke-width="1" opacity=".3"/>
  <line x1="778" y1="210" x2="628" y2="225" stroke="#7bc03b" stroke-width="1" opacity=".3"/>
  <line x1="470" y1="300" x2="575" y2="245" stroke="#4f46e5" stroke-width="1" opacity=".25"/>
  <line x1="730" y1="300" x2="625" y2="245" stroke="#4f46e5" stroke-width="1" opacity=".25"/>
  <line x1="425" y1="215" x2="445" y2="292" stroke="#7bc03b" stroke-width="1" opacity=".2"/>
  <line x1="775" y1="215" x2="755" y2="292" stroke="#7bc03b" stroke-width="1" opacity=".2"/>
  <!-- Category label -->
  <text x="600" y="420" text-anchor="middle" fill="#e2e8f0" font-family="Inter,system-ui,sans-serif" font-size="48" font-weight="800" letter-spacing="-1">HUMAN RESOURCES</text>
  <text x="600" y="460" text-anchor="middle" fill="rgba(226,232,240,.4)" font-family="Inter,system-ui,sans-serif" font-size="18" font-weight="400">People Management &amp; Talent Operations</text>
  <!-- Brand -->
  <text x="600" y="580" text-anchor="middle" fill="rgba(123,192,59,.4)" font-family="Inter,system-ui,sans-serif" font-size="16" font-weight="600" letter-spacing="2">ISO BPMS</text>
</svg>