<svg viewBox="0 0 1200 630" xmlns="http://www.w3.org/2000/svg">
  <rect width="1200" height="630" fill="#0a0e1a"/>
  <pattern id="g" width="40" height="40" patternUnits="userSpaceOnUse">
    <circle cx="20" cy="20" r=".8" fill="rgba(123,192,59,.1)"/>
  </pattern>
  <rect width="1200" height="630" fill="url(#g)"/>
  <!-- Route nodes -->
  <circle cx="250" cy="250" r="16" fill="#7bc03b" opacity=".3"/>
  <circle cx="250" cy="250" r="16" fill="none" stroke="#7bc03b" stroke-width="2" opacity=".6"/>
  <circle cx="250" cy="250" r="5" fill="#7bc03b" opacity=".6"/>
  <circle cx="450" cy="180" r="14" fill="#4f46e5" opacity=".3"/>
  <circle cx="450" cy="180" r="14" fill="none" stroke="#4f46e5" stroke-width="1.5" opacity=".5"/>
  <circle cx="450" cy="180" r="4" fill="#4f46e5" opacity=".5"/>
  <circle cx="600" cy="280" r="18" fill="#7bc03b" opacity=".3"/>
  <circle cx="600" cy="280" r="18" fill="none" stroke="#7bc03b" stroke-width="2" opacity=".6"/>
  <circle cx="600" cy="280" r="6" fill="#7bc03b" opacity=".6"/>
  <circle cx="750" cy="200" r="14" fill="#4f46e5" opacity=".3"/>
  <circle cx="750" cy="200" r="14" fill="none" stroke="#4f46e5" stroke-width="1.5" opacity=".5"/>
  <circle cx="750" cy="200" r="4" fill="#4f46e5" opacity=".5"/>
  <circle cx="950" cy="250" r="16" fill="#7bc03b" opacity=".3"/>
  <circle cx="950" cy="250" r="16" fill="none" stroke="#7bc03b" stroke-width="2" opacity=".6"/>
  <circle cx="950" cy="250" r="5" fill="#7bc03b" opacity=".6"/>
  <!-- Route paths (curved) -->
  <path d="M266,245 Q350,180 436,183" fill="none" stroke="#4f46e5" stroke-width="1.5" opacity=".4" stroke-dasharray="6,4"/>
  <path d="M464,185 Q530,250 582,278" fill="none" stroke="#7bc03b" stroke-width="1.5" opacity=".4" stroke-dasharray="6,4"/>
  <path d="M618,275 Q680,220 736,203" fill="none" stroke="#4f46e5" stroke-width="1.5" opacity=".4" stroke-dasharray="6,4"/>
  <path d="M764,205 Q860,230 934,248" fill="none" stroke="#7bc03b" stroke-width="1.5" opacity=".4" stroke-dasharray="6,4"/>
  <!-- Waypoint markers -->
  <rect x="340" y="208" width="8" height="8" rx="1" fill="#4f46e5" opacity=".3" transform="rotate(45,344,212)"/>
  <rect x="520" y="248" width="8" height="8" rx="1" fill="#7bc03b" opacity=".3" transform="rotate(45,524,252)"/>
  <rect x="680" y="228" width="8" height="8" rx="1" fill="#4f46e5" opacity=".3" transform="rotate(45,684,232)"/>
  <rect x="860" y="238" width="8" height="8" rx="1" fill="#7bc03b" opacity=".3" transform="rotate(45,864,242)"/>
  <!-- Category label -->
  <text x="600" y="420" text-anchor="middle" fill="#e2e8f0" font-family="Inter,system-ui,sans-serif" font-size="48" font-weight="800" letter-spacing="-1">LOGISTICS</text>
  <text x="600" y="460" text-anchor="middle" fill="rgba(226,232,240,.4)" font-family="Inter,system-ui,sans-serif" font-size="18" font-weight="400">Supply Chain &amp; Distribution</text>
  <!-- Brand -->
  <text x="600" y="580" text-anchor="middle" fill="rgba(123,192,59,.4)" font-family="Inter,system-ui,sans-serif" font-size="16" font-weight="600" letter-spacing="2">ISO BPMS</text>
</svg>