<svg viewBox="0 0 1200 630" xmlns="http://www.w3.org/2000/svg">
  <rect width="1200" height="630" fill="#0a0e1a"/>
  <pattern id="g" width="40" height="40" patternUnits="userSpaceOnUse">
    <circle cx="20" cy="20" r=".8" fill="rgba(123,192,59,.1)"/>
  </pattern>
  <rect width="1200" height="630" fill="url(#g)"/>
  <!-- Code brackets -->
  <text x="350" y="270" fill="#4f46e5" font-family="monospace" font-size="120" font-weight="300" opacity=".4">&lt;</text>
  <text x="780" y="270" fill="#4f46e5" font-family="monospace" font-size="120" font-weight="300" opacity=".4">/&gt;</text>
  <!-- Inner nodes -->
  <circle cx="520" cy="220" r="10" fill="#7bc03b" opacity=".4"/>
  <circle cx="520" cy="220" r="10" fill="none" stroke="#7bc03b" stroke-width="1.5" opacity=".6"/>
  <circle cx="600" cy="190" r="12" fill="#4f46e5" opacity=".3"/>
  <circle cx="600" cy="190" r="12" fill="none" stroke="#4f46e5" stroke-width="1.5" opacity=".5"/>
  <circle cx="680" cy="220" r="10" fill="#7bc03b" opacity=".4"/>
  <circle cx="680" cy="220" r="10" fill="none" stroke="#7bc03b" stroke-width="1.5" opacity=".6"/>
  <circle cx="560" cy="280" r="8" fill="#4f46e5" opacity=".3"/>
  <circle cx="560" cy="280" r="8" fill="none" stroke="#4f46e5" stroke-width="1.5" opacity=".4"/>
  <circle cx="640" cy="280" r="8" fill="#4f46e5" opacity=".3"/>
  <circle cx="640" cy="280" r="8" fill="none" stroke="#4f46e5" stroke-width="1.5" opacity=".4"/>
  <circle cx="600" cy="320" r="6" fill="#7bc03b" opacity=".3"/>
  <circle cx="600" cy="320" r="6" fill="none" stroke="#7bc03b" stroke-width="1" opacity=".4"/>
  <!-- Connection lines -->
  <line x1="530" y1="225" x2="588" y2="195" stroke="#7bc03b" stroke-width="1" opacity=".3"/>
  <line x1="670" y1="225" x2="612" y2="195" stroke="#7bc03b" stroke-width="1" opacity=".3"/>
  <line x1="525" y1="230" x2="555" y2="275" stroke="#4f46e5" stroke-width="1" opacity=".25"/>
  <line x1="675" y1="230" x2="645" y2="275" stroke="#4f46e5" stroke-width="1" opacity=".25"/>
  <line x1="565" y1="285" x2="595" y2="315" stroke="#7bc03b" stroke-width="1" opacity=".2"/>
  <line x1="635" y1="285" x2="605" y2="315" stroke="#7bc03b" stroke-width="1" opacity=".2"/>
  <line x1="595" y1="200" x2="565" y2="272" stroke="#4f46e5" stroke-width="1" opacity=".2"/>
  <line x1="605" y1="200" x2="635" y2="272" stroke="#4f46e5" stroke-width="1" opacity=".2"/>
  <!-- Category label -->
  <text x="600" y="420" text-anchor="middle" fill="#e2e8f0" font-family="Inter,system-ui,sans-serif" font-size="48" font-weight="800" letter-spacing="-1">TECHNOLOGY</text>
  <text x="600" y="460" text-anchor="middle" fill="rgba(226,232,240,.4)" font-family="Inter,system-ui,sans-serif" font-size="18" font-weight="400">Digital Transformation &amp; DevOps</text>
  <!-- Brand -->
  <text x="600" y="580" text-anchor="middle" fill="rgba(123,192,59,.4)" font-family="Inter,system-ui,sans-serif" font-size="16" font-weight="600" letter-spacing="2">ISO BPMS</text>
</svg>